# xmcd
#
# Track frame offsets:
#	150
#	4320
#	12788
#	25740
#	35768
#	45842
#	56549
#	71048
#	96963
#	105843
#	124377
#	136518
#	146443
#	155719
#	172548
#	192252
#	201374
#	211297
#	220897
#	223973
#	228044
#	237345
#	243530
#	256223
#	266206
#	277349
#	285612
#	295062
#	304012
#	314201
#
# Disc length: 4404 seconds
#
# Revision: 2
# Processed by: cddbd v1.5.2PL0 Copyright (c) Steve Scherf et al.
# Submitted via: EZCDAudioConverter 1.3.4.1
#
DISCID=c211321e
DTITLE=Tiny Tim - God Bless Tiny Tim 2/3
DYEAR=2006
DGENRE=
TTITLE0=Come To The Ball
TTITLE1=My Dreams Are Getting Better All The Time
TTITLE2=We Love It
TTITLE3=When I Walk With You
TTITLE4=Community
TTITLE5=She's Just Laughing At Me
TTITLE6=Have You Seen My Little Sue?
TTITLE7=Christopher Brady's Ole Lady
TTITLE8=Great Balls Of Fire
TTITLE9=Neighborhood Children
TTITLE10=I Can't Help But Wonder (Where I'm Bound)
TTITLE11=It's All Right Now
TTITLE12=Down Virginia Way
TTITLE13=I'm Glad I'm A Boy - I'm Glad I'm A Girl - My Hero
TTITLE14=As Time Goes By
TTITLE15=On The Good Ship Lollipop
TTITLE16=Sunshine Cake
TTITLE17=Mickey The Monkey
TTITLE18=Hot And Cold Water
TTITLE19=Two Times A Day
TTITLE20=Chickery Chick
TTITLE21=Oliphant The Elephant
TTITLE22=I'm A Lonesome Little Raindrop
TTITLE23=They Always Pick On Me
TTITLE24=Aren't You Glad You're You
TTITLE25=Sadie The Seal
TTITLE26=The Viper
TTITLE27=Bill The Buffalo
TTITLE28=Remember Your Name And Address
TTITLE29=What The World Needs Now Is Love
EXTD=
EXTT0=
EXTT1=
EXTT2=
EXTT3=
EXTT4=
EXTT5=
EXTT6=
EXTT7=
EXTT8=
EXTT9=
EXTT10=
EXTT11=
EXTT12=
EXTT13=
EXTT14=
EXTT15=
EXTT16=
EXTT17=
EXTT18=
EXTT19=
EXTT20=
EXTT21=
EXTT22=
EXTT23=
EXTT24=
EXTT25=
EXTT26=
EXTT27=
EXTT28=
EXTT29=
PLAYORDER=
